<svg height="512pt" viewBox="0 -13 512.00014 512" width="512pt" xmlns="http://www.w3.org/2000/svg"><path d="m433.964844 486.648438h-125.90625c-8.316406 0-15.058594-6.742188-15.058594-15.054688v-127.335938h-74v127.335938c0 8.3125-6.742188 15.054688-15.058594 15.054688h-125.914062c-8.316406 0-15.054688-6.742188-15.054688-15.054688v-209.722656h-36.691406c-10.925781 0-20.535156-6.582032-24.484375-16.773438-3.945313-10.1875-1.273437-21.527344 6.800781-28.886718l229.71875-209.320313c10.078125-9.1875 25.285156-9.1875 35.367188 0l52.234375 47.597656v-8.375c0-8.3125 6.742187-15.054687 15.058593-15.054687h104.117188c8.3125 0 15.054688 6.742187 15.054688 15.054687v130.683594l43.253906 39.410156c8.078125 7.363281 10.746094 18.703125 6.800781 28.890625-3.949219 10.191406-13.558594 16.773438-24.484375 16.773438h-36.699219v209.722656c.003907 8.3125-6.738281 15.054688-15.054687 15.054688zm-110.851563-30.113282h95.792969v-209.71875c0-8.316406 6.742188-15.058594 15.058594-15.058594h41.789062l-40.800781-37.179687c-3.132813-2.855469-4.917969-6.894531-4.917969-11.128906v-122.277344h-74v27.40625c0 5.960937-3.519531 11.363281-8.972656 13.773437-5.453125 2.40625-11.816406 1.371094-16.226562-2.644531l-74.835938-68.191406-219.753906 200.242187h41.78125c8.316406 0 15.058594 6.742188 15.058594 15.058594v209.71875h95.800781v-127.335937c0-8.316407 6.738281-15.058594 15.054687-15.058594h104.117188c8.316406 0 15.054687 6.742187 15.054687 15.058594zm160.003907-218.066406h.011718zm0 0" fill="#8cdc52"/></svg>