<?xml version="1.0" encoding="iso-8859-1"?>
<!-- Generator: Adobe Illustrator 19.0.0, SVG Export Plug-In . SVG Version: 6.00 Build 0)  -->
<svg version="1.1" id="Layer_1" xmlns="http://www.w3.org/2000/svg" xmlns:xlink="http://www.w3.org/1999/xlink" x="0px" y="0px"
	 viewBox="0 0 512 512" style="enable-background:new 0 0 512 512;" xml:space="preserve">
<g>
	<g>
		<path d="M373.333,160c-52.928,0-96,43.072-96,96s43.072,96,96,96c52.928,0,96-43.072,96-96S426.261,160,373.333,160z"/>
	</g>
</g>
<g>
	<g>
		<path d="M373.333,117.333H138.667C62.208,117.333,0,179.541,0,256s62.208,138.667,138.667,138.667h234.667
			C449.792,394.667,512,332.459,512,256S449.792,117.333,373.333,117.333z M373.333,373.333H138.667
			c-64.683,0-117.333-52.629-117.333-117.333s52.651-117.333,117.333-117.333h234.667c64.683,0,117.333,52.629,117.333,117.333
			S438.016,373.333,373.333,373.333z"/>
	</g>
</g>
<g>
	<g>
		<path d="M117.333,202.667c-17.643,0-32,14.357-32,32v42.667c0,17.643,14.357,32,32,32c17.643,0,32-14.357,32-32v-42.667
			C149.333,217.024,134.976,202.667,117.333,202.667z M128,277.333c0,5.888-4.8,10.667-10.667,10.667
			c-5.867,0-10.667-4.779-10.667-10.667v-42.667c0-5.888,4.8-10.667,10.667-10.667C123.2,224,128,228.779,128,234.667V277.333z"/>
	</g>
</g>
<g>
	<g>
		<path d="M224,202.667c-5.888,0-10.667,4.779-10.667,10.667v40.149l-22.443-44.928c-2.219-4.416-7.104-6.763-12.011-5.611
			c-4.821,1.131-8.213,5.44-8.213,10.389v85.333c0,5.888,4.779,10.667,10.667,10.667S192,304.555,192,298.667v-40.149l22.464,44.928
			c1.835,3.669,5.547,5.888,9.536,5.888c0.811,0,1.621-0.085,2.453-0.277c4.821-1.131,8.213-5.44,8.213-10.389v-85.333
			C234.667,207.445,229.888,202.667,224,202.667z"/>
	</g>
</g>
<g>
</g>
<g>
</g>
<g>
</g>
<g>
</g>
<g>
</g>
<g>
</g>
<g>
</g>
<g>
</g>
<g>
</g>
<g>
</g>
<g>
</g>
<g>
</g>
<g>
</g>
<g>
</g>
<g>
</g>
</svg>
