<svg height="512pt" viewBox="0 -107 512 512" width="512pt" xmlns="http://www.w3.org/2000/svg"><path d="m362.667969 298.667969h-213.335938c-82.34375 0-149.332031-67.007813-149.332031-149.335938 0-82.324219 66.988281-149.332031 149.332031-149.332031h213.335938c82.34375 0 149.332031 67.007812 149.332031 149.332031 0 82.328125-66.988281 149.335938-149.332031 149.335938zm-213.335938-266.667969c-64.703125 0-117.332031 52.652344-117.332031 117.332031 0 64.683594 52.628906 117.335938 117.332031 117.335938h213.335938c64.703125 0 117.332031-52.652344 117.332031-117.335938 0-64.679687-52.628906-117.332031-117.332031-117.332031zm0 0"/><path d="m149.332031 234.667969c-47.058593 0-85.332031-38.273438-85.332031-85.335938 0-47.058593 38.273438-85.332031 85.332031-85.332031 47.0625 0 85.335938 38.273438 85.335938 85.332031 0 47.0625-38.273438 85.335938-85.335938 85.335938zm0-138.667969c-29.394531 0-53.332031 23.914062-53.332031 53.332031 0 29.421875 23.9375 53.335938 53.332031 53.335938 29.398438 0 53.335938-23.914063 53.335938-53.335938 0-29.417969-23.9375-53.332031-53.335938-53.332031zm0 0"/></svg>